<?xml version="1.0" encoding="UTF-8"?>
<svg xmlns="http://www.w3.org/2000/svg" xmlns:xlink="http://www.w3.org/1999/xlink" width="89pt" height="25pt" viewBox="0 0 89 25" version="1.1">
<g id="surface1">
<path style=" stroke:none;fill-rule:nonzero;fill:rgb(40.784314%,46.27451%,47.45098%);fill-opacity:1;" d="M 1.390625 10.253906 L 4.59375 10.253906 L 4.59375 24.328125 L 1.390625 24.328125 Z M 1.390625 10.253906 "/>
<path style=" stroke:none;fill-rule:evenodd;fill:rgb(2.745098%,0.784314%,1.568627%);fill-opacity:1;" d="M 73.375 11.601562 L 73.375 14.070312 C 72.257812 13.171875 68.011719 11.675781 67.117188 13.546875 C 66.222656 15.867188 70.023438 15.941406 71.511719 16.691406 C 75.613281 18.789062 73.675781 24.402344 68.011719 24.328125 C 66.074219 24.25 64.210938 23.726562 63.6875 23.578125 L 63.6875 20.734375 C 65.105469 21.855469 68.980469 22.753906 70.023438 20.957031 C 71.4375 17.964844 64.882812 18.5625 63.839844 16.167969 C 61.75 11.152344 68.160156 8.382812 73.375 11.601562 Z M 73.375 11.601562 "/>
<path style=" stroke:none;fill-rule:evenodd;fill:rgb(2.745098%,0.784314%,1.568627%);fill-opacity:1;" d="M 32.167969 11.601562 L 32.167969 14.070312 C 31.050781 13.171875 26.800781 11.675781 25.90625 13.546875 C 25.011719 15.867188 28.8125 15.941406 30.304688 16.691406 C 34.402344 18.789062 32.464844 24.402344 26.800781 24.328125 C 24.863281 24.25 23 23.726562 22.480469 23.578125 L 22.480469 20.734375 C 23.894531 21.855469 27.769531 22.753906 28.8125 20.957031 C 30.230469 17.964844 23.671875 18.5625 22.628906 16.167969 C 20.542969 11.152344 26.949219 8.382812 32.167969 11.601562 Z M 32.167969 11.601562 "/>
<path style=" stroke:none;fill-rule:nonzero;fill:rgb(2.745098%,0.784314%,1.568627%);fill-opacity:1;" d="M 55.269531 10.105469 C 50.5 10.105469 48.488281 12.800781 48.488281 18.113281 L 48.488281 24.328125 C 49.679688 24.328125 50.796875 24.328125 51.914062 24.328125 L 51.914062 16.019531 C 51.914062 11.902344 58.621094 11.902344 58.621094 16.019531 L 58.621094 24.328125 C 59.8125 24.328125 60.855469 24.328125 62.050781 24.328125 L 62.050781 18.113281 C 62.050781 12.800781 60.039062 10.105469 55.269531 10.105469 "/>
<path style=" stroke:none;fill-rule:evenodd;fill:rgb(2.745098%,0.784314%,1.568627%);fill-opacity:1;" d="M 78.296875 15.71875 L 83.4375 15.71875 C 82.914062 11.902344 78.667969 11.902344 78.296875 15.71875 Z M 87.609375 18.710938 L 78.21875 18.710938 C 78.667969 22.304688 82.617188 22.082031 84.554688 20.660156 L 85.152344 22.902344 C 84.03125 24.851562 73.898438 25.75 73.898438 17.289062 C 73.898438 13.773438 76.433594 10.179688 80.902344 10.105469 C 86.046875 10.179688 87.90625 14.222656 87.609375 18.710938 Z M 87.609375 18.710938 "/>
<path style=" stroke:none;fill-rule:evenodd;fill:rgb(2.745098%,0.784314%,1.568627%);fill-opacity:1;" d="M 37.457031 15.71875 L 42.601562 15.71875 C 42.152344 11.902344 37.832031 11.902344 37.457031 15.71875 Z M 46.773438 18.710938 L 37.382812 18.710938 C 37.832031 22.304688 41.78125 22.082031 43.71875 20.660156 L 44.3125 22.902344 C 43.195312 24.851562 33.0625 25.75 33.0625 17.289062 C 33.0625 13.773438 35.59375 10.179688 40.066406 10.105469 C 45.207031 10.179688 47.070312 14.222656 46.773438 18.710938 Z M 46.773438 18.710938 "/>
<path style=" stroke:none;fill-rule:evenodd;fill:rgb(95.686275%,49.411765%,12.54902%);fill-opacity:1;" d="M 2.359375 8.082031 C 3.253906 8.082031 4 7.335938 4 6.4375 C 4 5.539062 3.253906 4.789062 2.359375 4.789062 C 1.464844 4.789062 0.71875 5.613281 0.71875 6.511719 C 0.71875 7.410156 1.464844 8.082031 2.359375 8.082031 Z M 2.359375 8.082031 "/>
<path style=" stroke:none;fill-rule:evenodd;fill:rgb(98.823529%,78.431373%,59.215686%);fill-opacity:1;" d="M 2.359375 3.667969 C 3.253906 3.667969 4 2.917969 4 2.019531 C 4 1.121094 3.253906 0.375 2.359375 0.375 C 1.464844 0.375 0.71875 1.121094 0.71875 2.019531 C 0.71875 2.917969 1.464844 3.667969 2.359375 3.667969 Z M 2.359375 3.667969 "/>
<path style=" stroke:none;fill-rule:evenodd;fill:rgb(98.431373%,72.54902%,50.196078%);fill-opacity:1;" d="M 6.980469 8.082031 C 7.875 8.082031 8.617188 7.335938 8.617188 6.4375 C 8.617188 5.539062 7.875 4.789062 6.980469 4.789062 C 6.085938 4.789062 5.339844 5.539062 5.339844 6.4375 C 5.339844 7.335938 6.085938 8.082031 6.980469 8.082031 Z M 6.980469 8.082031 "/>
<path style=" stroke:none;fill-rule:evenodd;fill:rgb(99.215686%,88.235294%,77.647059%);fill-opacity:1;" d="M 8.617188 2.019531 C 8.617188 2.929688 7.882812 3.667969 6.980469 3.667969 C 6.074219 3.667969 5.339844 2.929688 5.339844 2.019531 C 5.339844 1.113281 6.074219 0.375 6.980469 0.375 C 7.882812 0.375 8.617188 1.113281 8.617188 2.019531 Z M 8.617188 2.019531 "/>
<path style=" stroke:none;fill-rule:evenodd;fill:rgb(40.784314%,46.27451%,47.45098%);fill-opacity:1;" d="M 13.460938 10.253906 C 9.511719 10.253906 6.234375 12.425781 6.234375 15.121094 L 6.234375 24.328125 L 9.585938 24.328125 L 9.585938 19.3125 C 10.703125 19.761719 11.972656 20.058594 13.386719 20.058594 C 17.335938 20.058594 20.617188 17.890625 20.617188 15.195312 C 20.617188 12.5 17.410156 10.253906 13.460938 10.253906 Z M 13.535156 17.738281 C 11.375 17.738281 9.660156 16.542969 9.660156 15.121094 C 9.660156 13.699219 11.375 12.5 13.535156 12.5 C 15.699219 12.5 17.410156 13.699219 17.410156 15.121094 C 17.410156 16.542969 15.699219 17.738281 13.535156 17.738281 Z M 13.535156 17.738281 "/>
</g>
</svg>
